<?xml version="1.0" encoding="UTF-8"?>
<svg id="Layer_2" data-name="Layer 2" xmlns="http://www.w3.org/2000/svg" xmlns:xlink="http://www.w3.org/1999/xlink" viewBox="0 0 271.84 271.84">
  <defs>
    <style>
      .cls-1 {
        fill: none;
      }

      .cls-2 {
        fill: #7df983;
      }

      .cls-3 {
        fill: #c090ff;
      }

      .cls-4 {
        clip-path: url(#clippath);
      }
    </style>
    <clipPath id="clippath">
      <rect class="cls-1" width="271.84" height="271.84"/>
    </clipPath>
  </defs>
  <g id="Layer_1-2" data-name="Layer 1">
    <g class="cls-4">
      <g>
        <polygon class="cls-3" points="385.01 159.2 380.63 163.57 262.09 40.64 262.09 40.64 385.01 159.2"/>
        <polygon class="cls-3" points="286.48 257.72 282.11 262.1 163.56 139.17 163.56 139.17 286.48 257.72"/>
        <polygon class="cls-2" points="292.21 252 288.7 255.5 193.76 157.05 193.76 157.05 292.21 252"/>
        <polygon class="cls-3" points="298.8 245.41 294.42 249.78 175.88 126.85 175.88 126.85 298.8 245.41"/>
        <polygon class="cls-2" points="304.52 239.68 301.02 243.19 206.08 144.74 206.08 144.74 304.52 239.68"/>
        <polygon class="cls-3" points="311.12 233.09 306.74 237.47 188.19 114.53 188.19 114.53 311.12 233.09"/>
        <polygon class="cls-2" points="316.84 227.37 313.33 230.87 218.4 132.42 218.4 132.42 316.84 227.37"/>
        <polygon class="cls-3" points="323.43 220.77 319.06 225.15 200.51 102.22 200.51 102.22 323.43 220.77"/>
        <polygon class="cls-2" points="329.15 215.05 325.65 218.56 230.71 120.11 230.71 120.11 329.15 215.05"/>
        <polygon class="cls-3" points="335.75 208.46 331.37 212.83 212.83 89.9 212.83 89.9 335.75 208.46"/>
        <polygon class="cls-2" points="341.47 202.74 337.96 206.24 243.03 107.79 243.03 107.79 341.47 202.74"/>
        <polygon class="cls-3" points="348.06 196.14 343.69 200.52 225.14 77.59 225.14 77.59 348.06 196.14"/>
        <polygon class="cls-2" points="353.78 190.42 350.28 193.92 255.34 95.48 255.34 95.48 353.78 190.42"/>
        <polygon class="cls-3" points="360.38 183.83 356 188.2 237.46 65.27 237.46 65.27 360.38 183.83"/>
        <polygon class="cls-2" points="366.1 178.11 362.6 181.61 267.66 83.16 267.66 83.16 366.1 178.11"/>
        <polygon class="cls-3" points="372.69 171.51 368.32 175.89 249.77 52.96 249.77 52.96 372.69 171.51"/>
        <polygon class="cls-3" points="188.17 356.04 183.79 360.41 65.25 237.48 65.25 237.48 188.17 356.04"/>
        <polygon class="cls-2" points="193.89 350.32 190.39 353.82 95.45 255.37 95.45 255.37 193.89 350.32"/>
        <polygon class="cls-3" points="200.48 343.72 196.11 348.1 77.56 225.17 77.56 225.17 200.48 343.72"/>
        <polygon class="cls-2" points="206.2 338 202.7 341.5 107.76 243.05 107.76 243.05 206.2 338"/>
        <polygon class="cls-3" points="212.8 331.41 208.42 335.78 89.88 212.85 89.88 212.85 212.8 331.41"/>
        <polygon class="cls-2" points="218.52 325.68 215.02 329.19 120.08 230.74 120.08 230.74 218.52 325.68"/>
        <polygon class="cls-3" points="225.11 319.09 220.74 323.47 102.19 200.54 102.19 200.54 225.11 319.09"/>
        <polygon class="cls-2" points="230.84 313.37 227.33 316.87 132.39 218.42 132.39 218.42 230.84 313.37"/>
        <polygon class="cls-3" points="237.43 306.78 233.05 311.15 114.51 188.22 114.51 188.22 237.43 306.78"/>
        <polygon class="cls-2" points="243.15 301.05 239.65 304.56 144.71 206.11 144.71 206.11 243.15 301.05"/>
        <polygon class="cls-3" points="249.75 294.46 245.37 298.84 126.82 175.9 126.82 175.9 249.75 294.46"/>
        <polygon class="cls-2" points="255.47 288.74 251.96 292.24 157.03 193.79 157.03 193.79 255.47 288.74"/>
        <polygon class="cls-3" points="262.06 282.14 257.69 286.52 139.14 163.59 139.14 163.59 262.06 282.14"/>
        <polygon class="cls-2" points="267.78 276.42 264.28 279.93 169.34 181.48 169.34 181.48 267.78 276.42"/>
        <polygon class="cls-3" points="274.38 269.83 270 274.2 151.46 151.27 151.46 151.27 274.38 269.83"/>
        <polygon class="cls-2" points="280.1 264.11 276.59 267.61 181.66 169.16 181.66 169.16 280.1 264.11"/>
        <polygon class="cls-3" points="163.54 380.67 159.16 385.04 40.62 262.11 40.62 262.11 163.54 380.67"/>
        <polygon class="cls-3" points="175.85 368.35 171.48 372.73 52.93 249.8 52.93 249.8 175.85 368.35"/>
        <polygon class="cls-2" points="181.57 362.63 178.07 366.14 83.13 267.69 83.13 267.69 181.57 362.63"/>
      </g>
    </g>
  </g>
</svg>